{
  "accessors": [
    {
      "bufferView": 2,
      "componentType": 5126,
      "count": 19413,
      "max": [
        50.244056701660156,
        18.460594177246094,
        0.13808700442314148
      ],
      "min": [
        -50.233078002929688,
        -18.253616333007812,
        -182.53654479980469
      ],
      "type": "VEC3"
    },
    {
      "bufferView": 2,
      "byteOffset": 232956,
      "componentType": 5126,
      "count": 19413,
      "max": [
        0.99990081787109375,
        1,
        0.99999260902404785
      ],
      "min": [
        -0.99989259243011475,
        -1,
        -0.99995529651641846
      ],
      "type": "VEC3"
    },
    {
      "bufferView": 1,
      "componentType": 5126,
      "count": 19413,
      "max": [
        0.99459999799728394,
        0.99030202627182007
      ],
      "min": [
        0.0057999999262392521,
        0.0067300000227987766
      ],
      "type": "VEC2"
    },
    {
      "bufferView": 0,
      "componentType": 5125,
      "count": 102378,
      "max": [
        19412
      ],
      "min": [
        0
      ],
      "type": "SCALAR"
    },
    {
      "bufferView": 2,
      "byteOffset": 465912,
      "componentType": 5126,
      "count": 12361,
      "max": [
        7.2675662040710449,
        9.075678825378418,
        -156.69786071777344
      ],
      "min": [
        -7.2369189262390137,
        -0.52293097972869873,
        -169.83793640136719
      ],
      "type": "VEC3"
    },
    {
      "bufferView": 2,
      "byteOffset": 614244,
      "componentType": 5126,
      "count": 12361,
      "max": [
        0.99976944923400879,
        0.99974679946899414,
        0.99977076053619385
      ],
      "min": [
        -0.9998403787612915,
        -0.99914455413818359,
        -0.99978888034820557
      ],
      "type": "VEC3"
    },
    {
      "bufferView": 1,
      "byteOffset": 155304,
      "componentType": 5126,
      "count": 12361,
      "max": [
        0.99635380506515503,
        0.99968588352203369
      ],
      "min": [
        0.00010556161578278989,
        0.0052031143568456173
      ],
      "type": "VEC2"
    },
    {
      "bufferView": 0,
      "byteOffset": 409512,
      "componentType": 5125,
      "count": 49104,
      "max": [
        12360
      ],
      "min": [
        0
      ],
      "type": "SCALAR"
    },
    {
      "bufferView": 2,
      "byteOffset": 762576,
      "componentType": 5126,
      "count": 4480,
      "max": [
        9.1315107345581055,
        3.2487740516662598,
        -162.03092956542969
      ],
      "min": [
        -9.5732088088989258,
        -8.5711145401000977,
        -172.92091369628906
      ],
      "type": "VEC3"
    },
    {
      "bufferView": 2,
      "byteOffset": 816336,
      "componentType": 5126,
      "count": 4480,
      "max": [
        0.99875181913375854,
        0.99999809265136719,
        0.99932050704956055
      ],
      "min": [
        -0.9991527795791626,
        -0.99768739938735962,
        -0.9969480037689209
      ],
      "type": "VEC3"
    },
    {
      "bufferView": 1,
      "byteOffset": 254192,
      "componentType": 5126,
      "count": 4480,
      "max": [
        0.9998353123664856,
        0.99854362010955811
      ],
      "min": [
        0.00054437655489891768,
        0.0042673866264522076
      ],
      "type": "VEC2"
    },
    {
      "bufferView": 0,
      "byteOffset": 605928,
      "componentType": 5125,
      "count": 14256,
      "max": [
        4479
      ],
      "min": [
        0
      ],
      "type": "SCALAR"
    }
  ],
  "asset": {
    "extras": {
      "author": "Marc Sawyer - Whitewash Studio Architecture (https://sketchfab.com/whitewashstudio)",
      "license": "CC-BY-4.0 (http://creativecommons.org/licenses/by/4.0/)",
      "source": "https://sketchfab.com/3d-models/homemade-facemask-cg-character-347e4820dbba4165a365cf04af69685f",
      "title": "Homemade Facemask - CG Character"
    },
    "generator": "Sketchfab-8.51.0",
    "version": "2.0"
  },
  "bufferViews": [
    {
      "buffer": 0,
      "byteLength": 662952,
      "byteOffset": 0,
      "name": "floatBufferViews",
      "target": 34963
    },
    {
      "buffer": 0,
      "byteLength": 290032,
      "byteOffset": 662952,
      "byteStride": 8,
      "name": "floatBufferViews",
      "target": 34962
    },
    {
      "buffer": 0,
      "byteLength": 870096,
      "byteOffset": 952984,
      "byteStride": 12,
      "name": "floatBufferViews",
      "target": 34962
    }
  ],
  "buffers": [
    {
      "byteLength": 1823080,
      "uri": "scene.bin"
    }
  ],
  "images": [
    {
      "uri": "textures/FaceMask_FRONT_3601_baseColor.png"
    }
  ],
  "materials": [
    {
      "doubleSided": true,
      "emissiveFactor": [
        0,
        0,
        0
      ],
      "name": "Default_OBJ",
      "pbrMetallicRoughness": {
        "baseColorFactor": [
          0.80000000000000004,
          0.80000000000000004,
          0.80000000000000004,
          1
        ],
        "metallicFactor": 0,
        "roughnessFactor": 0.5
      }
    },
    {
      "doubleSided": true,
      "emissiveFactor": [
        0,
        0,
        0
      ],
      "name": "FaceMask_FRONT_3601",
      "pbrMetallicRoughness": {
        "baseColorFactor": [
          1,
          1,
          1,
          1
        ],
        "baseColorTexture": {
          "index": 0,
          "texCoord": 0
        },
        "metallicFactor": 0,
        "roughnessFactor": 0.82122899999999999
      }
    },
    {
      "doubleSided": true,
      "emissiveFactor": [
        0,
        0,
        0
      ],
      "name": "Strap_FRONT_1400556",
      "pbrMetallicRoughness": {
        "baseColorFactor": [
          1,
          1,
          1,
          1
        ],
        "metallicFactor": 0,
        "roughnessFactor": 0.82122899999999999
      }
    }
  ],
  "meshes": [
    {
      "primitives": [
        {
          "attributes": {
            "NORMAL": 1,
            "POSITION": 0,
            "TEXCOORD_0": 2
          },
          "indices": 3,
          "material": 0,
          "mode": 4
        }
      ]
    },
    {
      "primitives": [
        {
          "attributes": {
            "NORMAL": 5,
            "POSITION": 4,
            "TEXCOORD_0": 6
          },
          "indices": 7,
          "material": 1,
          "mode": 4
        }
      ]
    },
    {
      "primitives": [
        {
          "attributes": {
            "NORMAL": 9,
            "POSITION": 8,
            "TEXCOORD_0": 10
          },
          "indices": 11,
          "material": 2,
          "mode": 4
        }
      ]
    }
  ],
  "nodes": [
    {
      "children": [
        1
      ],
      "name": "RootNode (gltf orientation matrix)",
      "rotation": [
        -0.70710678118654746,
        -0,
        -0,
        0.70710678118654757
      ]
    },
    {
      "children": [
        2
      ],
      "name": "RootNode (model correction matrix)"
    },
    {
      "children": [
        3
      ],
      "name": "root"
    },
    {
      "children": [
        4,
        6
      ],
      "matrix": [
        1,
        0,
        0,
        0,
        0,
        2.2204460492503131e-16,
        1,
        0,
        0,
        -1,
        2.2204460492503131e-16,
        0,
        0,
        0,
        0,
        1
      ],
      "name": "GLTF_SceneRootNode"
    },
    {
      "children": [
        5
      ],
      "matrix": [
        1,
        0,
        0,
        0,
        0,
        -1.685873969314855e-07,
        0.99999999999998579,
        0,
        0,
        -0.99999999999998579,
        -1.685873969314855e-07,
        0,
        0,
        0,
        0,
        1
      ],
      "name": "Avatar-Male-Medium-APose_0"
    },
    {
      "mesh": 0,
      "name": ""
    },
    {
      "children": [
        7,
        8
      ],
      "matrix": [
        1,
        0,
        0,
        0,
        0,
        -1.685873969314855e-07,
        0.99999999999998579,
        0,
        0,
        -0.99999999999998579,
        -1.685873969314855e-07,
        0,
        0,
        0,
        0,
        1
      ],
      "name": "Facemask_1"
    },
    {
      "mesh": 1,
      "name": ""
    },
    {
      "mesh": 2,
      "name": ""
    }
  ],
  "samplers": [
    {
      "magFilter": 9729,
      "minFilter": 9987,
      "wrapS": 10497,
      "wrapT": 10497
    }
  ],
  "scene": 0,
  "scenes": [
    {
      "name": "OSG_Scene",
      "nodes": [
        0
      ]
    }
  ],
  "textures": [
    {
      "sampler": 0,
      "source": 0
    }
  ]
}

