{
  "accessors": [
    {
      "bufferView": 2,
      "componentType": 5126,
      "count": 931,
      "max": [
        0.95607316493988037,
        1.2514684200286865,
        0.07697344571352005
      ],
      "min": [
        -2.4454426765441895,
        -1.2198077440261841,
        -1.3318030834197998
      ],
      "type": "VEC3"
    },
    {
      "bufferView": 2,
      "byteOffset": 11172,
      "componentType": 5126,
      "count": 931,
      "max": [
        0.99979948997497559,
        0.79774165153503418,
        0.98311030864715576
      ],
      "min": [
        -0.92011755704879761,
        -0.78122639656066895,
        -0.99976575374603271
      ],
      "type": "VEC3"
    },
    {
      "bufferView": 3,
      "componentType": 5126,
      "count": 931,
      "max": [
        0.68170154094696045,
        -0.57801312208175659,
        0.80530530214309692,
        1
      ],
      "min": [
        -0.67931747436523438,
        -0.99998700618743896,
        -0.74466758966445923,
        1
      ],
      "type": "VEC4"
    },
    {
      "bufferView": 1,
      "componentType": 5126,
      "count": 931,
      "max": [
        0.77586627006530762,
        0.87082576751708984
      ],
      "min": [
        0.20551961660385132,
        0.11566399037837982
      ],
      "type": "VEC2"
    },
    {
      "bufferView": 0,
      "componentType": 5125,
      "count": 5184,
      "max": [
        930
      ],
      "min": [
        0
      ],
      "type": "SCALAR"
    },
    {
      "bufferView": 2,
      "byteOffset": 22344,
      "componentType": 5126,
      "count": 232,
      "max": [
        0.38729971647262573,
        -1.0196706056594849,
        0.088663659989833832
      ],
      "min": [
        -1.7869125604629517,
        -1.2982252836227417,
        -0.61901354789733887
      ],
      "type": "VEC3"
    },
    {
      "bufferView": 2,
      "byteOffset": 25128,
      "componentType": 5126,
      "count": 232,
      "max": [
        0.79243910312652588,
        0.63730537891387939,
        0.99169373512268066
      ],
      "min": [
        -0.85616350173950195,
        -0.990001380443573,
        -0.89152109622955322
      ],
      "type": "VEC3"
    },
    {
      "bufferView": 3,
      "byteOffset": 14896,
      "componentType": 5126,
      "count": 232,
      "max": [
        0.3470127284526825,
        0.99375510215759277,
        0.98945975303649902,
        1
      ],
      "min": [
        -0.81586241722106934,
        -0.95879584550857544,
        -0.66233658790588379,
        1
      ],
      "type": "VEC4"
    },
    {
      "bufferView": 1,
      "byteOffset": 7448,
      "componentType": 5126,
      "count": 232,
      "max": [
        0.16858106851577759,
        0.86987078189849854
      ],
      "min": [
        0.035212770104408264,
        0.11887520551681519
      ],
      "type": "VEC2"
    },
    {
      "bufferView": 0,
      "byteOffset": 20736,
      "componentType": 5125,
      "count": 1176,
      "max": [
        231
      ],
      "min": [
        0
      ],
      "type": "SCALAR"
    },
    {
      "bufferView": 2,
      "byteOffset": 27912,
      "componentType": 5126,
      "count": 216,
      "max": [
        0.41620081663131714,
        1.2862242460250854,
        0.052576612681150436
      ],
      "min": [
        -1.7825464010238647,
        1.0406447649002075,
        -0.66184687614440918
      ],
      "type": "VEC3"
    },
    {
      "bufferView": 2,
      "byteOffset": 30504,
      "componentType": 5126,
      "count": 216,
      "max": [
        0.80742079019546509,
        0.999961256980896,
        0.99395740032196045
      ],
      "min": [
        -0.90127754211425781,
        -0.95646357536315918,
        -0.93514162302017212
      ],
      "type": "VEC3"
    },
    {
      "bufferView": 3,
      "byteOffset": 18608,
      "componentType": 5126,
      "count": 216,
      "max": [
        0.95342934131622314,
        0.95210009813308716,
        0.99964338541030884,
        1
      ],
      "min": [
        -0.94731813669204712,
        -0.99942964315414429,
        -0.47719690203666687,
        1
      ],
      "type": "VEC4"
    },
    {
      "bufferView": 1,
      "byteOffset": 9304,
      "componentType": 5126,
      "count": 216,
      "max": [
        0.16843941807746887,
        0.87175285816192627
      ],
      "min": [
        0.034557588398456573,
        0.11945921182632446
      ],
      "type": "VEC2"
    },
    {
      "bufferView": 0,
      "byteOffset": 25440,
      "componentType": 5125,
      "count": 1092,
      "max": [
        215
      ],
      "min": [
        0
      ],
      "type": "SCALAR"
    },
    {
      "bufferView": 2,
      "byteOffset": 33096,
      "componentType": 5126,
      "count": 171,
      "max": [
        -1.5949388742446899,
        1.2918798923492432,
        0.33010366559028625
      ],
      "min": [
        -2.591484546661377,
        -1.2971186637878418,
        -0.37455034255981445
      ],
      "type": "VEC3"
    },
    {
      "bufferView": 2,
      "byteOffset": 35148,
      "componentType": 5126,
      "count": 171,
      "max": [
        -0.26868844032287598,
        0.77086657285690308,
        0.72212868928909302
      ],
      "min": [
        -0.99164313077926636,
        -0.7522081732749939,
        -0.78693574666976929
      ],
      "type": "VEC3"
    },
    {
      "bufferView": 3,
      "byteOffset": 22064,
      "componentType": 5126,
      "count": 171,
      "max": [
        0.86263388395309448,
        0.8618922233581543,
        0.99158048629760742,
        1
      ],
      "min": [
        -0.79372453689575195,
        -0.80673277378082275,
        -0.87622398138046265,
        -1
      ],
      "type": "VEC4"
    },
    {
      "bufferView": 1,
      "byteOffset": 11032,
      "componentType": 5126,
      "count": 171,
      "max": [
        0.9726405143737793,
        0.88061439990997314
      ],
      "min": [
        0.80457031726837158,
        0.10603788495063782
      ],
      "type": "VEC2"
    },
    {
      "bufferView": 0,
      "byteOffset": 29808,
      "componentType": 5125,
      "count": 756,
      "max": [
        170
      ],
      "min": [
        0
      ],
      "type": "SCALAR"
    },
    {
      "bufferView": 2,
      "byteOffset": 37200,
      "componentType": 5126,
      "count": 190,
      "max": [
        1.0597681999206543,
        1.3121753931045532,
        0.15542340278625488
      ],
      "min": [
        0.1922079473733902,
        -1.3252842426300049,
        -0.47958672046661377
      ],
      "type": "VEC3"
    },
    {
      "bufferView": 2,
      "byteOffset": 39480,
      "componentType": 5126,
      "count": 190,
      "max": [
        0.99379992485046387,
        0.67990195751190186,
        0.97542482614517212
      ],
      "min": [
        0.091709427535533905,
        -0.6968197226524353,
        -0.98457157611846924
      ],
      "type": "VEC3"
    },
    {
      "bufferView": 3,
      "byteOffset": 24800,
      "componentType": 5126,
      "count": 190,
      "max": [
        0.98956435918807983,
        0.93617933988571167,
        0.99403023719787598,
        1
      ],
      "min": [
        -0.98480385541915894,
        -0.89483636617660522,
        -0.91841703653335571,
        -1
      ],
      "type": "VEC4"
    },
    {
      "bufferView": 1,
      "byteOffset": 12400,
      "componentType": 5126,
      "count": 190,
      "max": [
        0.9726405143737793,
        0.88061439990997314
      ],
      "min": [
        0.80457031726837158,
        0.10603788495063782
      ],
      "type": "VEC2"
    },
    {
      "bufferView": 0,
      "byteOffset": 32832,
      "componentType": 5125,
      "count": 756,
      "max": [
        189
      ],
      "min": [
        0
      ],
      "type": "SCALAR"
    },
    {
      "bufferView": 2,
      "byteOffset": 41760,
      "componentType": 5126,
      "count": 125,
      "max": [
        1.3554226160049438,
        0.049894958734512329,
        1.599529504776001
      ],
      "min": [
        -1.2431081533432007,
        -0.75861376523971558,
        -0.54219526052474976
      ],
      "type": "VEC3"
    },
    {
      "bufferView": 2,
      "byteOffset": 43260,
      "componentType": 5126,
      "count": 125,
      "max": [
        0.89943057298660278,
        0.98919159173965454,
        0.96468108892440796
      ],
      "min": [
        -0.87041407823562622,
        -0.96662575006484985,
        -0.98099726438522339
      ],
      "type": "VEC3"
    },
    {
      "bufferView": 3,
      "byteOffset": 27840,
      "componentType": 5126,
      "count": 125,
      "max": [
        0.83002394437789917,
        0.30639100074768066,
        0.94690877199172974,
        1
      ],
      "min": [
        -0.99462985992431641,
        -0.34346914291381836,
        -0.96965563297271729,
        1
      ],
      "type": "VEC4"
    },
    {
      "bufferView": 1,
      "byteOffset": 13920,
      "componentType": 5126,
      "count": 125,
      "max": [
        0.98365020751953125,
        0.069274261593818665
      ],
      "min": [
        0.025599271059036255,
        0.031948521733283997
      ],
      "type": "VEC2"
    },
    {
      "bufferView": 0,
      "byteOffset": 35856,
      "componentType": 5125,
      "count": 576,
      "max": [
        124
      ],
      "min": [
        0
      ],
      "type": "SCALAR"
    },
    {
      "bufferView": 2,
      "byteOffset": 44760,
      "componentType": 5126,
      "count": 125,
      "max": [
        1.3740170001983643,
        0.0097000077366828918,
        1.5942645072937012
      ],
      "min": [
        -1.2431081533432007,
        -0.75861376523971558,
        -0.54219526052474976
      ],
      "type": "VEC3"
    },
    {
      "bufferView": 2,
      "byteOffset": 46260,
      "componentType": 5126,
      "count": 125,
      "max": [
        0.87021821737289429,
        0.98919159173965454,
        0.96468108892440796
      ],
      "min": [
        -0.87376904487609863,
        -0.96662575006484985,
        -0.98099726438522339
      ],
      "type": "VEC3"
    },
    {
      "bufferView": 3,
      "byteOffset": 29840,
      "componentType": 5126,
      "count": 125,
      "max": [
        0.90943789482116699,
        0.3063911497592926,
        0.96543639898300171,
        1
      ],
      "min": [
        -0.99462991952896118,
        -0.34346911311149597,
        -0.98709088563919067,
        1
      ],
      "type": "VEC4"
    },
    {
      "bufferView": 1,
      "byteOffset": 14920,
      "componentType": 5126,
      "count": 125,
      "max": [
        0.98365020751953125,
        0.069274261593818665
      ],
      "min": [
        0.025599271059036255,
        0.031948521733283997
      ],
      "type": "VEC2"
    },
    {
      "bufferView": 0,
      "byteOffset": 38160,
      "componentType": 5125,
      "count": 576,
      "max": [
        124
      ],
      "min": [
        0
      ],
      "type": "SCALAR"
    },
    {
      "bufferView": 2,
      "byteOffset": 47760,
      "componentType": 5126,
      "count": 562,
      "max": [
        1,
        3.4438340663909912,
        1
      ],
      "min": [
        -1,
        -1,
        -1
      ],
      "type": "VEC3"
    },
    {
      "bufferView": 2,
      "byteOffset": 54504,
      "componentType": 5126,
      "count": 562,
      "max": [
        0.99748861789703369,
        0.99748861789703369,
        0.99748861789703369
      ],
      "min": [
        -0.99748861789703369,
        -0.99748861789703369,
        -0.99748861789703369
      ],
      "type": "VEC3"
    },
    {
      "bufferView": 1,
      "byteOffset": 15920,
      "componentType": 5126,
      "count": 562,
      "max": [
        0.875,
        1
      ],
      "min": [
        0.125,
        0
      ],
      "type": "VEC2"
    },
    {
      "bufferView": 0,
      "byteOffset": 40464,
      "componentType": 5125,
      "count": 2916,
      "max": [
        561
      ],
      "min": [
        0
      ],
      "type": "SCALAR"
    },
    {
      "bufferView": 2,
      "byteOffset": 61248,
      "componentType": 5126,
      "count": 5004,
      "max": [
        5.4540290832519531,
        0.03999999538064003,
        0.23000000417232513
      ],
      "min": [
        0.049028612673282623,
        -0.03999999538064003,
        -0.69100004434585571
      ],
      "type": "VEC3"
    },
    {
      "bufferView": 2,
      "byteOffset": 121296,
      "componentType": 5126,
      "count": 5004,
      "max": [
        1,
        1,
        1
      ],
      "min": [
        -1,
        -1,
        -1
      ],
      "type": "VEC3"
    },
    {
      "bufferView": 1,
      "byteOffset": 20416,
      "componentType": 5126,
      "count": 5004,
      "max": [
        1,
        1
      ],
      "min": [
        0,
        0
      ],
      "type": "VEC2"
    },
    {
      "bufferView": 0,
      "byteOffset": 52128,
      "componentType": 5125,
      "count": 14784,
      "max": [
        5003
      ],
      "min": [
        0
      ],
      "type": "SCALAR"
    }
  ],
  "asset": {
    "extras": {
      "author": "Maycon.Chaves (https://sketchfab.com/Maycon.Chaves)",
      "license": "CC-BY-SA-4.0 (http://creativecommons.org/licenses/by-sa/4.0/)",
      "source": "https://sketchfab.com/3d-models/surgical-mask-free-download-fdbb7a007e6746c2bc323f4f1d80c4be",
      "title": "Surgical Mask - Free download"
    },
    "generator": "Sketchfab-8.29.0",
    "version": "2.0"
  },
  "bufferViews": [
    {
      "buffer": 0,
      "byteLength": 111264,
      "byteOffset": 0,
      "name": "floatBufferViews",
      "target": 34963
    },
    {
      "buffer": 0,
      "byteLength": 60448,
      "byteOffset": 111264,
      "byteStride": 8,
      "name": "floatBufferViews",
      "target": 34962
    },
    {
      "buffer": 0,
      "byteLength": 181344,
      "byteOffset": 171712,
      "byteStride": 12,
      "name": "floatBufferViews",
      "target": 34962
    },
    {
      "buffer": 0,
      "byteLength": 31840,
      "byteOffset": 353056,
      "byteStride": 16,
      "name": "floatBufferViews",
      "target": 34962
    }
  ],
  "buffers": [
    {
      "byteLength": 384896,
      "uri": "scene.bin"
    }
  ],
  "images": [
    {
      "uri": "textures/MASK_baseColor.png"
    },
    {
      "uri": "textures/MASK_normal.png"
    }
  ],
  "materials": [
    {
      "doubleSided": true,
      "emissiveFactor": [
        0.077906008111345543,
        0.077906008111345543,
        0.077906008111345543
      ],
      "emissiveTexture": {
        "index": 0,
        "texCoord": 0
      },
      "name": "MASK",
      "normalTexture": {
        "index": 1,
        "scale": 0.068595290068770104,
        "texCoord": 0
      },
      "pbrMetallicRoughness": {
        "baseColorFactor": [
          1,
          1,
          1,
          1
        ],
        "baseColorTexture": {
          "index": 0,
          "texCoord": 0
        },
        "metallicFactor": 0,
        "roughnessFactor": 0.70642735967797843
      }
    },
    {
      "doubleSided": true,
      "emissiveFactor": [
        0,
        0,
        0
      ],
      "name": "Material.002",
      "pbrMetallicRoughness": {
        "baseColorFactor": [
          0.43035699999999988,
          0.61671231136414395,
          0.79999999999999993,
          1
        ],
        "metallicFactor": 0.67500000000000004,
        "roughnessFactor": 0.044273414365715878
      }
    },
    {
      "doubleSided": true,
      "emissiveFactor": [
        0,
        0,
        0
      ],
      "name": "Material.001",
      "pbrMetallicRoughness": {
        "baseColorFactor": [
          0,
          0,
          0,
          1
        ],
        "metallicFactor": 0.39166699999999999,
        "roughnessFactor": 0
      }
    }
  ],
  "meshes": [
    {
      "primitives": [
        {
          "attributes": {
            "NORMAL": 1,
            "POSITION": 0,
            "TANGENT": 2,
            "TEXCOORD_0": 3
          },
          "indices": 4,
          "material": 0,
          "mode": 4
        }
      ]
    },
    {
      "primitives": [
        {
          "attributes": {
            "NORMAL": 6,
            "POSITION": 5,
            "TANGENT": 7,
            "TEXCOORD_0": 8
          },
          "indices": 9,
          "material": 0,
          "mode": 4
        }
      ]
    },
    {
      "primitives": [
        {
          "attributes": {
            "NORMAL": 11,
            "POSITION": 10,
            "TANGENT": 12,
            "TEXCOORD_0": 13
          },
          "indices": 14,
          "material": 0,
          "mode": 4
        }
      ]
    },
    {
      "primitives": [
        {
          "attributes": {
            "NORMAL": 16,
            "POSITION": 15,
            "TANGENT": 17,
            "TEXCOORD_0": 18
          },
          "indices": 19,
          "material": 0,
          "mode": 4
        }
      ]
    },
    {
      "primitives": [
        {
          "attributes": {
            "NORMAL": 21,
            "POSITION": 20,
            "TANGENT": 22,
            "TEXCOORD_0": 23
          },
          "indices": 24,
          "material": 0,
          "mode": 4
        }
      ]
    },
    {
      "primitives": [
        {
          "attributes": {
            "NORMAL": 26,
            "POSITION": 25,
            "TANGENT": 27,
            "TEXCOORD_0": 28
          },
          "indices": 29,
          "material": 0,
          "mode": 4
        }
      ]
    },
    {
      "primitives": [
        {
          "attributes": {
            "NORMAL": 31,
            "POSITION": 30,
            "TANGENT": 32,
            "TEXCOORD_0": 33
          },
          "indices": 34,
          "material": 0,
          "mode": 4
        }
      ]
    },
    {
      "primitives": [
        {
          "attributes": {
            "NORMAL": 36,
            "POSITION": 35,
            "TEXCOORD_0": 37
          },
          "indices": 38,
          "material": 1,
          "mode": 4
        }
      ]
    },
    {
      "primitives": [
        {
          "attributes": {
            "NORMAL": 40,
            "POSITION": 39,
            "TEXCOORD_0": 41
          },
          "indices": 42,
          "material": 2,
          "mode": 4
        }
      ]
    }
  ],
  "nodes": [
    {
      "children": [
        1
      ],
      "name": "RootNode (gltf orientation matrix)",
      "rotation": [
        -0.70710678118654746,
        -0,
        -0,
        0.70710678118654757
      ]
    },
    {
      "children": [
        2
      ],
      "name": "RootNode (model correction matrix)"
    },
    {
      "children": [
        3
      ],
      "name": "root"
    },
    {
      "children": [
        4,
        6,
        8,
        10,
        12,
        14,
        16,
        18,
        20
      ],
      "matrix": [
        1,
        0,
        0,
        0,
        0,
        2.2204460492503131e-16,
        1,
        0,
        0,
        -1,
        2.2204460492503131e-16,
        0,
        0,
        0,
        0,
        1
      ],
      "name": "GLTF_SceneRootNode"
    },
    {
      "children": [
        5
      ],
      "matrix": [
        1.685874103651841e-07,
        0.99999999999997236,
        1.6292068076121036e-07,
        0,
        1.4158781766891089,
        -2.3869919731683472e-07,
        -2.3067587531017933e-07,
        0,
        -1.6292068076121036e-07,
        1.6292070822758614e-07,
        -0.99999999999997335,
        0,
        0,
        3.7441225051879883,
        0.28974640369415283,
        1
      ],
      "name": "BezierCurve_2"
    },
    {
      "mesh": 0,
      "name": ""
    },
    {
      "children": [
        7
      ],
      "matrix": [
        1.685874103651841e-07,
        0.99999999999997236,
        1.6292068076121036e-07,
        0,
        1.4158781766891089,
        -2.3869919731683472e-07,
        -2.3067587531017933e-07,
        0,
        -1.6292068076121036e-07,
        1.6292070822758614e-07,
        -0.99999999999997335,
        0,
        0,
        3.7441225051879883,
        0.25623846054077148,
        1
      ],
      "name": "BezierCurve.002_3"
    },
    {
      "mesh": 1,
      "name": ""
    },
    {
      "children": [
        9
      ],
      "matrix": [
        1.685874103651841e-07,
        0.99999999999997236,
        1.6292068076121036e-07,
        0,
        1.4158781766891089,
        -2.3869919731683472e-07,
        -2.3067587531017933e-07,
        0,
        -1.6292068076121036e-07,
        1.6292070822758614e-07,
        -0.99999999999997335,
        0,
        0,
        3.7441225051879883,
        0.25217604637145996,
        1
      ],
      "name": "BezierCurve.003_4"
    },
    {
      "mesh": 2,
      "name": ""
    },
    {
      "children": [
        11
      ],
      "matrix": [
        1.685874103651841e-07,
        0.99999999999997236,
        1.6292068076121036e-07,
        0,
        1.4158781766891089,
        -2.3869919731683472e-07,
        -2.3067587531017933e-07,
        0,
        -1.6292068076121036e-07,
        1.6292070822758614e-07,
        -0.99999999999997335,
        0,
        0,
        3.7441225051879883,
        0.28974640369415283,
        1
      ],
      "name": "BezierCurve.001_5"
    },
    {
      "mesh": 3,
      "name": ""
    },
    {
      "children": [
        13
      ],
      "matrix": [
        1.685874103651841e-07,
        0.99999999999997236,
        1.6292068076121036e-07,
        0,
        1.4158781766891089,
        -2.3869919731683472e-07,
        -2.3067587531017933e-07,
        0,
        -1.6292068076121036e-07,
        1.6292070822758614e-07,
        -0.99999999999997335,
        0,
        0,
        3.7441225051879883,
        0.28974640369415283,
        1
      ],
      "name": "BezierCurve.004_6"
    },
    {
      "mesh": 4,
      "name": ""
    },
    {
      "children": [
        15
      ],
      "matrix": [
        7.9442738831758675e-08,
        -0.99674467908731312,
        -0.080622854769119484,
        0,
        0.99999999999998934,
        8.9007399006746368e-08,
        -1.150407350145044e-07,
        0,
        1.218422711057876e-07,
        -0.080622854769109492,
        0.99674467908730979,
        0,
        -1.725411057472229,
        3.2311379909515381,
        -1.2353425025939941,
        1
      ],
      "name": "BezierCurve.005_7"
    },
    {
      "mesh": 5,
      "name": ""
    },
    {
      "children": [
        17
      ],
      "matrix": [
        7.9442738831758675e-08,
        -0.99674467908731312,
        -0.080622854769119484,
        0,
        -0.99999999999998934,
        -8.9007399006746368e-08,
        1.150407350145044e-07,
        -0,
        1.218422711057876e-07,
        -0.080622854769109492,
        0.99674467908730979,
        0,
        1.6849048137664795,
        3.2311379909515381,
        -1.2353425025939941,
        1
      ],
      "name": "BezierCurve.006_8"
    },
    {
      "mesh": 6,
      "name": ""
    },
    {
      "children": [
        19
      ],
      "matrix": [
        3.0799570083618164,
        0,
        0,
        0,
        0,
        0.20245715975761414,
        0,
        0,
        0,
        0,
        3.0799570083618164,
        0,
        0,
        0.19009456038475037,
        0,
        1
      ],
      "name": "Cube_9"
    },
    {
      "mesh": 7,
      "name": ""
    },
    {
      "children": [
        21
      ],
      "matrix": [
        1,
        0,
        0,
        0,
        0,
        1,
        0,
        0,
        0,
        0,
        1,
        0,
        -2.7376282215118408,
        0.90068674087524414,
        2.4913508892059326,
        1
      ],
      "name": "Text_10"
    },
    {
      "mesh": 8,
      "name": ""
    }
  ],
  "samplers": [
    {
      "magFilter": 9729,
      "minFilter": 9987,
      "wrapS": 10497,
      "wrapT": 10497
    }
  ],
  "scene": 0,
  "scenes": [
    {
      "name": "OSG_Scene",
      "nodes": [
        0
      ]
    }
  ],
  "textures": [
    {
      "sampler": 0,
      "source": 0
    },
    {
      "sampler": 0,
      "source": 1
    }
  ]
}

